<svg width="50" height="50" viewBox="0 0 50 50" fill="none" xmlns="http://www.w3.org/2000/svg">
<path d="M15.0934 30.7947L21.3291 22.6902L28.442 28.2776L34.5442 20.4019" stroke="white" stroke-width="3.5" stroke-linecap="round" stroke-linejoin="round"/>
<path d="M40.9091 15.9091C44.6747 15.9091 47.7273 12.8565 47.7273 9.09091C47.7273 5.32533 44.6747 2.27273 40.9091 2.27273C37.1435 2.27273 34.0909 5.32533 34.0909 9.09091C34.0909 12.8565 37.1435 15.9091 40.9091 15.9091Z" fill="#FF6060"/>
<path d="M31.0927 6.50029H15.9516C9.67772 6.50029 5.78756 10.9435 5.78756 17.2173V34.0556C5.78756 40.3294 9.60145 44.7535 15.9516 44.7535H33.8768C40.1506 44.7535 44.0408 40.3294 44.0408 34.0556V19.3912" stroke="white" stroke-width="3.5" stroke-linecap="round" stroke-linejoin="round"/>
</svg>
