<svg width="50" height="50" viewBox="0 0 50 50" fill="none" xmlns="http://www.w3.org/2000/svg">
<path d="M7.22046 21.1278C7.47614 16.7665 11.0875 13.3606 15.4563 13.3606H34.4016C38.7704 13.3606 42.3818 16.7665 42.6375 21.1278L43.4904 35.6772C43.7682 40.4152 40.0007 44.41 35.2546 44.41H14.6034C9.85723 44.41 6.08978 40.4152 6.36754 35.6772L7.22046 21.1278Z" stroke="white" stroke-width="3.5"/>
<path d="M17.953 13.3018V9.97971C17.953 6.67721 20.9277 4 24.5972 4C28.2666 4 31.2413 6.67721 31.2413 9.97971V13.3018" stroke="white" stroke-width="3.5"/>
<path d="M18.2847 19.9458C18.2847 19.9458 18.2847 26.9221 24.5966 26.9221C31.5729 26.9221 31.5729 19.9458 31.5729 19.9458" stroke="white" stroke-width="2" stroke-linecap="round"/>
</svg>
