<svg width="50" height="50" viewBox="0 0 50 50" fill="none" xmlns="http://www.w3.org/2000/svg">
<path d="M10.4167 20.8333H14.5833C18.75 20.8333 20.8333 18.75 20.8333 14.5833V10.4167C20.8333 6.25 18.75 4.16667 14.5833 4.16667H10.4167C6.25001 4.16667 4.16667 6.25 4.16667 10.4167V14.5833C4.16667 18.75 6.25001 20.8333 10.4167 20.8333Z" fill="white"/>
<path d="M35.4167 20.8333H39.5833C43.75 20.8333 45.8333 18.75 45.8333 14.5833V10.4167C45.8333 6.25 43.75 4.16667 39.5833 4.16667H35.4167C31.25 4.16667 29.1667 6.25 29.1667 10.4167V14.5833C29.1667 18.75 31.25 20.8333 35.4167 20.8333Z" fill="white"/>
<path d="M35.4167 45.8333H39.5833C43.75 45.8333 45.8333 43.75 45.8333 39.5833V35.4167C45.8333 31.25 43.75 29.1667 39.5833 29.1667H35.4167C31.25 29.1667 29.1667 31.25 29.1667 35.4167V39.5833C29.1667 43.75 31.25 45.8333 35.4167 45.8333Z" fill="white"/>
<path d="M10.4167 45.8333H14.5833C18.75 45.8333 20.8333 43.75 20.8333 39.5833V35.4167C20.8333 31.25 18.75 29.1667 14.5833 29.1667H10.4167C6.25001 29.1667 4.16667 31.25 4.16667 35.4167V39.5833C4.16667 43.75 6.25001 45.8333 10.4167 45.8333Z" fill="white"/>
</svg>
