<svg width="365" height="104" viewBox="0 0 365 104" fill="none" xmlns="http://www.w3.org/2000/svg">
<path fill-rule="evenodd" clip-rule="evenodd" d="M17.0491 1.26275C7.75663 5.93005 -0.675953 19.5964 0.0428617 28.8245C0.444918 33.989 3.45804 38.654 7.82948 40.8806C12.2443 43.1285 13.0521 42.1155 10.6291 37.3694C9.0942 34.3625 8.92545 33.6544 8.76085 29.5321C8.54138 24.0478 9.65764 18.9236 12.1599 13.925C13.8225 10.6038 17.5595 5.8508 18.0976 6.37305C18.572 6.83413 18.3913 63.6527 17.9012 67.977C17.6545 70.1568 17.1409 72.972 16.7605 74.2329C15.4686 78.5123 15.9052 79.5382 18.5462 78.4293C20.9397 77.4242 24.0275 74.3362 25.4102 71.5646C28.2601 65.851 28.2205 66.3579 28.3961 33.5075C28.5257 9.31004 28.4399 3.32207 27.9558 2.73263C27.1665 1.77109 24.1349 0.46571 21.8217 0.0908245C20.3057 -0.154774 19.4559 0.0537527 17.0491 1.26275ZM119.377 0.648286C118.491 1.37906 118.371 2.08898 118.103 8.12143L117.807 14.7869L112.784 14.5478C107.801 14.3101 107.756 14.3175 106.996 15.4834C106.543 16.1785 106.224 17.6238 106.214 19.02L106.198 21.3819L108.965 21.4903C110.486 21.5501 113.028 21.723 114.613 21.875L117.495 22.1507L117.462 29.6442C117.445 33.7652 117.279 39.4617 117.095 42.3027C116.792 46.9705 116.597 47.7967 115.069 50.8755C114.14 52.7495 112.55 55.2212 111.537 56.3681L109.695 58.4534L109.676 55.5521C109.641 50.3713 107.421 47.35 98.8151 40.7754L94.6599 37.6007L96.3774 35.052C101.079 28.0747 100.419 23.3346 94.7438 23.3346C86.983 23.3346 81.8554 32.6957 86.2287 38.8796L87.1333 40.1591L84.9404 44.2087C81.7599 50.084 77.4166 57.3111 76.1021 58.9168C74.4542 60.9298 73.0189 61.6299 72.307 60.7671C71.2396 59.4747 70.915 52.8755 71.3599 41.5122C71.6006 35.3699 71.6232 29.8912 71.4107 29.3384C70.6411 27.3379 66.7119 24.6845 63.6683 24.1108C61.1287 23.6317 57.4323 25.7837 54.9291 29.198C52.2673 32.8291 51.2493 34.8861 48.6009 41.9858C47.4159 45.1619 46.3453 47.8625 46.2213 47.9872C46.0977 48.1118 46.1383 43.4218 46.3121 37.565C46.5998 27.874 46.5569 26.8453 45.8386 26.1233C44.8118 25.0909 40.2693 23.7707 38.9179 24.1118C37.9722 24.3504 37.8353 24.7373 37.5664 27.931C37.0643 33.9005 37.2193 63.5104 37.7661 66.0725C38.4443 69.2509 39.7796 70.2699 43.2672 70.2699C44.8348 70.2699 46.1014 70.0336 46.3711 69.6907C46.6224 69.3723 46.9673 67.9645 47.1383 66.5628C47.5427 63.2477 50.2584 52.8343 51.7625 48.8329C54.3468 41.957 60.2909 31.8083 61.7341 31.8083C62.0758 31.8083 62.1182 33.6822 61.8729 37.9482C61.2979 47.9339 61.4196 61.4112 62.1062 63.7824C63.0947 67.1976 64.0579 68.8807 65.4324 69.5952C68.528 71.2041 72.2964 69.9182 76.1593 65.9344C78.7381 63.275 80.8567 60.1309 86.5934 50.4529C88.7438 46.825 90.6264 43.8565 90.7772 43.8565C90.9279 43.8565 92.7381 45.4802 94.7996 47.4649C98.9884 51.4978 100.409 54.0155 100.425 57.4339C100.454 63.794 95.8969 65.1934 89.95 60.6503C88.0126 59.1698 86.5118 59.5266 85.0179 61.8218C83.2506 64.5363 83.0731 65.9483 84.3295 67.2926C87.0881 70.2435 97.5342 71.4344 102.795 69.3983C108.288 67.2718 112.666 62.9882 115.853 56.6221L117.393 53.5465L117.924 56.6146C119.046 63.0868 121.593 67.6355 125.032 69.3093C127.628 70.572 130.959 70.5739 132.988 69.3135C135.209 67.9344 138.014 64.5609 139.61 61.3514C140.699 59.1619 141.057 58.7537 141.289 59.4376C142.152 61.9747 143.781 65.1225 144.951 66.5132C147.769 69.8626 153.111 71.1221 157.754 69.5322C160.177 68.7023 163.952 65.5173 165.504 62.9928L166.535 61.3171L167.136 63.0628C168.181 66.0975 169.501 67.7537 171.933 69.0841C173.939 70.1814 174.695 70.3459 176.971 70.1805C180.097 69.953 182.221 68.5808 184.52 65.3033L185.959 63.2504L186.632 64.3274C187.98 66.4849 191.111 69.1499 192.95 69.7032C197.773 71.1555 202.191 69.952 206.115 66.1165L208.787 63.5053V65.5618C208.787 67.6142 208.769 67.6365 200.546 75.7792C190.934 85.2978 189.422 87.6161 189.422 92.8335C189.422 96.3516 190.131 98.2515 192.233 100.364C195.597 103.745 201.487 104.951 206.089 103.202C209.14 102.043 212.493 99.2357 214.067 96.5216C216.571 92.2074 217.196 88.5462 217.43 76.8102L217.647 65.9738L220.974 61.5183C226.503 54.1146 230.863 46.3315 233.918 38.4116L235.214 35.052H238.83C242.913 35.052 242.736 34.7971 241.725 39.2225C241.347 40.8792 240.917 45.2583 240.769 48.9538C240.469 56.4789 241.113 60.5836 243.137 64.0563C247.487 71.5164 256.327 72.2973 260.729 65.6105L261.961 63.7398L263.961 66.0363C266.562 69.0248 269.13 70.2713 272.676 70.2653C277.205 70.2579 281.529 67.7491 284.505 63.402C285.912 61.3459 285.972 61.313 286.265 62.4154C287.073 65.4506 289.248 68.0734 292.2 69.572C293.336 70.149 294.522 70.3163 296.471 70.1745C299.653 69.9432 301.067 69.047 303.173 65.9265L304.653 63.7347L304.959 66.0554C305.395 69.3561 306.286 70.0049 310.616 70.1712C312.556 70.2454 314.448 70.1008 314.822 69.8492C315.34 69.5011 315.636 67.4224 316.065 61.142C316.406 56.148 317 51.4297 317.571 49.1855C318.836 44.2082 321.124 38.2874 322.406 36.6711L323.452 35.3532L323.783 41.806C324.205 50.0326 325.216 58.7411 326.087 61.6369C327.239 65.4701 330.106 67.4664 333.532 66.8204C335.49 66.4511 336.043 65.458 336.045 62.307C336.049 57.1142 338.017 47.7884 340.637 40.5534C342.998 34.0302 343.346 33.9765 343.076 40.1767C342.779 46.9937 343.642 57.3422 344.828 61.2008C346.577 66.8941 350.417 70.2718 355.135 70.2681C357.865 70.2662 359.793 69.2602 361.58 66.9057C363.943 63.7926 365.776 56.2041 364.669 54.1239C363.445 51.825 362.164 53.3445 360.74 58.7838C358.904 65.8 354.995 66.1188 352.777 59.4321C352.11 57.4223 351.984 54.9214 351.943 42.9297C351.917 35.1563 351.727 28.4218 351.52 27.9639C351.1 27.0339 347.846 25.2508 345.035 24.4106C342.526 23.6609 340.942 24.3282 339.776 26.6247C337.802 30.514 334.588 41.0678 332.995 48.8926C332.872 49.496 332.683 49.901 332.574 49.7921C332.466 49.6832 332.179 44.8477 331.936 39.0455C331.446 27.3374 331.337 26.9264 328.293 25.3652C325.581 23.9751 323.329 23.6947 321.985 24.5807C320.426 25.6071 319.254 28.046 316.394 36.2105L313.96 43.1614L313.936 34.7151C313.913 26.476 313.887 26.2526 312.875 25.5988C312.106 25.102 307.456 23.9306 306.253 23.9306C306.19 23.9306 305.814 24.2582 305.415 24.6586C304.788 25.2888 304.691 27.2828 304.691 39.4459C304.691 51.9149 304.592 53.8222 303.822 56.3102C301.666 63.2722 298.136 66.427 295.591 63.6666C293.591 61.4969 293.388 59.4557 293.497 42.5877L293.6 26.7216L292.177 25.9825C291.395 25.5756 289.641 25.1275 288.279 24.9862C285.456 24.6933 284.403 25.2549 284.403 27.0534C284.403 28.1938 284.378 28.1859 282.508 26.488C280.037 24.2447 277.875 23.3736 274.7 23.3439C268.415 23.2841 262.916 29.3768 260.635 38.9288C259.688 42.894 259.289 51.3408 259.872 55.0664C260.464 58.8436 259.942 60.9339 257.853 63.1605C255.988 65.1476 254.341 65.2041 252.61 63.3413C250.634 61.2157 250.05 58.3755 250.08 51.0391C250.1 45.995 250.341 43.5205 251.165 39.9176C251.748 37.369 252.332 34.198 252.462 32.8708C252.681 30.6498 252.589 30.3462 251.297 29.0478C249.662 27.4051 248.06 27.2559 243.052 28.2809C241.324 28.6345 239.162 29.0552 238.248 29.216L236.585 29.508L236.806 27.204C237.006 25.1113 236.897 24.7702 235.622 23.4885C234.545 22.406 233.806 22.0775 232.453 22.0788C226.66 22.0844 223.407 29.8727 227.433 34.096L228.576 35.2953L227.005 40.0015C226.141 42.59 224.569 46.4362 223.513 48.5483C221.556 52.4603 218.1 58.2217 217.711 58.2217C217.593 58.2217 217.534 51.1999 217.579 42.6174C217.656 27.9876 217.608 26.9751 216.819 26.3944C214.881 24.9704 209.929 24.3587 208.879 25.4134C208.575 25.7193 208.326 26.4913 208.326 27.1294C208.326 28.2772 208.308 28.2716 206.597 26.6243C204.067 24.1882 202.113 23.3523 198.899 23.3305C192.425 23.2864 187.502 28.7406 184.764 38.9909C183.94 42.0775 183.765 44.0937 183.717 51.0391C183.661 59.0215 183.609 59.4691 182.506 61.4478C180.225 65.5401 177.171 65.7903 175.441 62.0275C174.475 59.926 174.434 59.2212 174.356 43.4121C174.281 28.2545 174.211 26.9338 173.455 26.3777C171.538 24.969 166.581 24.3652 165.538 25.4134C165.234 25.7193 164.985 26.4913 164.985 27.1294C164.985 28.2772 164.967 28.2716 163.256 26.6243C160.795 24.2549 158.791 23.3726 155.807 23.3448C150.684 23.2966 146.503 26.5413 143.518 32.8805C141.716 36.7063 140.762 41.027 140.131 48.224C139.748 52.5817 139.458 53.7513 138.045 56.6248C136.073 60.635 133.251 63.4446 131.41 63.231C130.447 63.1188 129.92 62.5767 129.021 60.7703C127.899 58.5136 127.865 58.1577 127.742 47.1002C127.672 40.856 127.776 32.7235 127.972 29.0279L128.33 22.3087L134.664 22.1799L140.999 22.051L141.696 20.697C142.079 19.9519 142.393 18.6266 142.393 17.7517C142.393 15.9143 141.759 15.6062 137.967 15.596C136.673 15.5923 133.998 15.4519 132.02 15.2841L128.425 14.9787L128.703 8.79799L128.981 2.61725L127.733 1.96942C126.594 1.37767 124.857 0.854496 121.576 0.115383C120.769 -0.0667304 120.024 0.11353 119.377 0.648286ZM160.09 31.0608C163.642 32.552 165.254 37.8755 164.81 46.6368C164.262 57.4571 160.909 64.2458 156.114 64.2458C151.978 64.2458 149.233 56.351 149.992 46.6368C150.703 37.5238 152.857 32.4732 156.686 30.9385C158.234 30.3184 158.331 30.3217 160.09 31.0608ZM205.604 32.0803C207.397 33.7114 208.097 37.173 208.077 44.3199C208.058 51.5789 207.329 55.5928 205.292 59.6675C202.923 64.4061 199.079 65.6911 196.411 62.6364C191.754 57.3055 192.43 39.2661 197.512 33.2999C199.947 30.4399 203.253 29.9417 205.604 32.0803ZM280.547 31.6076C285.23 34.5372 285.27 53.3088 280.609 60.9339C278.529 64.3357 274.657 65.2671 272.453 62.8959C269.807 60.0498 268.592 51.7592 269.607 43.4797C270.874 33.1382 275.306 28.3296 280.547 31.6076ZM208.559 89.4373C207.323 96.6921 205.141 99.6954 201.108 99.6954C199.343 99.6954 198.826 99.4674 197.684 98.182C194.348 94.4299 197.077 87.5188 205.413 78.6096L209.018 74.7565L209.149 79.9799C209.229 83.2088 209.004 86.8195 208.559 89.4373Z" fill="white"/>
</svg>
